<svg width="16" height="16" viewBox="0 0 16 16" fill="none" xmlns="http://www.w3.org/2000/svg">
<path fill-rule="evenodd" clip-rule="evenodd" d="M5.33331 12.0007C4.59998 12.0007 4.00665 12.6006 4.00665 13.334C4.00665 14.0673 4.59998 14.6673 5.33331 14.6673C6.06665 14.6673 6.66665 14.0673 6.66665 13.334C6.66665 12.6006 6.06665 12.0007 5.33331 12.0007ZM1.33331 1.33398V2.66732H2.66665L5.06665 7.72732L4.16665 9.36065C4.05998 9.54732 3.99998 9.76732 3.99998 10.0007C3.99998 10.734 4.59998 11.334 5.33331 11.334H13.3333V10.0007H5.61331C5.51998 10.0007 5.44665 9.92732 5.44665 9.83398L5.46665 9.75398L6.06665 8.66732H11.0333C11.5333 8.66732 11.9733 8.39398 12.2 7.98065L14.5866 3.65398C14.64 3.56065 14.6666 3.44732 14.6666 3.33398C14.6666 2.96732 14.3666 2.66732 14 2.66732H4.13998L3.51331 1.33398H1.33331ZM12 12.0007C11.2666 12.0007 10.6733 12.6006 10.6733 13.334C10.6733 14.0673 11.2666 14.6673 12 14.6673C12.7333 14.6673 13.3333 14.0673 13.3333 13.334C13.3333 12.6006 12.7333 12.0007 12 12.0007Z" fill="#1B1B1B"/>
</svg>
