<svg width="21" height="15" viewBox="0 0 21 15" fill="none" xmlns="http://www.w3.org/2000/svg">
<g clip-path="url(#clip0_1414_4736)">
<rect width="21" height="15" rx="3" fill="white"/>
<path fill-rule="evenodd" clip-rule="evenodd" d="M0 10H21V15H0V10Z" fill="#151515"/>
<path fill-rule="evenodd" clip-rule="evenodd" d="M0 0H21V5H0V0Z" fill="#CE0920"/>
<path d="M9.22931 6.27378C9.15034 6.20597 9.08627 6.12391 9.03712 6.02757C9.02844 6.01039 9.02273 5.9886 9.01998 5.96222C9.0199 5.96145 9.01961 5.96072 9.01914 5.9601C9.01866 5.95949 9.01803 5.95902 9.0173 5.95875C9.01658 5.95848 9.01579 5.95842 9.01503 5.95858C9.01427 5.95874 9.01357 5.95911 9.01301 5.95964L7.4332 7.48545C7.43141 7.4872 7.42998 7.48928 7.42901 7.49159C7.42804 7.49389 7.42753 7.49636 7.42753 7.49885V7.85513C7.42753 7.85729 7.42839 7.85935 7.42991 7.86088C7.43143 7.8624 7.4335 7.86325 7.43565 7.86325C8.26354 7.86317 8.95836 7.86317 9.52011 7.86325C9.56677 7.86325 9.60493 7.85655 9.60776 7.80332C9.60785 7.80211 9.60802 7.72314 9.60828 7.5664C9.60828 7.56392 9.60863 7.56149 9.60931 7.55918C9.61997 7.51827 9.64411 7.49619 9.68175 7.49292C9.76013 7.48622 9.7774 7.5441 9.77688 7.6137C9.77594 7.73899 9.77576 7.85346 9.77637 7.95709C9.77638 7.95831 9.77616 7.95951 9.77571 7.96064C9.77525 7.96176 9.77458 7.96279 9.77373 7.96365C9.77288 7.96451 9.77187 7.9652 9.77075 7.96567C9.76963 7.96613 9.76843 7.96638 9.76721 7.96638H7.00783C7.00636 7.96638 7.00495 7.96579 7.00391 7.96475C7.00287 7.96371 7.00229 7.9623 7.00229 7.96083V7.4023C7.00226 7.40136 7.00198 7.40044 7.00145 7.39965C7.00093 7.39886 7.0002 7.39824 6.99934 7.39784C6.99847 7.39745 6.99752 7.39731 6.99658 7.39744C6.99565 7.39757 6.99476 7.39796 6.99404 7.39857C6.93165 7.45313 6.8776 7.49894 6.83188 7.53598C6.79321 7.56726 6.76133 7.58977 6.73624 7.60352C6.70985 7.61804 6.6741 7.63403 6.62899 7.65147C6.62806 7.65182 6.62727 7.65245 6.6267 7.65327C6.62614 7.65409 6.62584 7.65505 6.62584 7.65605C6.62584 7.65704 6.62614 7.65801 6.6267 7.65882C6.62727 7.65964 6.62806 7.66027 6.62899 7.66062C6.66697 7.67549 6.69013 7.70578 6.69847 7.7515C6.71273 7.83021 6.71583 7.91168 6.70775 7.99589C6.70765 7.99703 6.70714 7.9981 6.70631 7.99888C6.70547 7.99967 6.70438 8.00012 6.70324 8.00015C6.57588 8.00126 6.47306 8.00114 6.39478 7.99976C6.27567 7.9977 6.17672 7.98257 6.09792 7.95439C5.98749 7.91477 5.93817 7.83442 5.94994 7.71334C5.95239 7.68898 5.96566 7.65804 5.97005 7.63059C5.97014 7.62993 5.97004 7.62926 5.96976 7.62866C5.96948 7.62806 5.96904 7.62755 5.96848 7.6272C5.96793 7.62686 5.96729 7.62669 5.96665 7.62672C5.96601 7.62675 5.9654 7.62697 5.96489 7.62737C5.83741 7.71773 5.70773 7.79623 5.55692 7.84147C5.55525 7.84198 5.55372 7.84286 5.55244 7.84404C5.55116 7.84522 5.55016 7.84667 5.54951 7.84828C5.54887 7.84989 5.5486 7.85162 5.54872 7.85334C5.54884 7.85506 5.54935 7.85673 5.55022 7.85823C5.6157 7.97011 5.6731 8.0823 5.72243 8.19479C5.7635 8.28846 5.7898 8.38023 5.80132 8.47012C5.83419 8.72702 5.64328 8.88299 5.44001 8.99114C5.41337 9.00532 5.39425 9.01619 5.38264 9.02375C5.38208 9.02409 5.38164 9.0246 5.38138 9.0252C5.38111 9.0258 5.38104 9.02647 5.38116 9.02712C5.38129 9.02776 5.38161 9.02836 5.38208 9.02881C5.38256 9.02927 5.38316 9.02957 5.38381 9.02968C5.63194 9.07686 5.88394 9.00983 6.03836 8.80797C6.08872 8.74206 6.1191 8.66755 6.1295 8.58446C6.12968 8.5831 6.13034 8.58185 6.13133 8.58095C6.13233 8.58005 6.1336 8.57955 6.13491 8.57956H10.1445C10.1454 8.57956 10.1463 8.5792 10.147 8.57858C10.1476 8.57795 10.148 8.5771 10.148 8.57621C10.1484 8.24966 10.1483 7.91142 10.1477 7.5615C10.1473 7.35229 10.0052 7.26735 9.83489 7.19838C9.78427 7.17793 9.7392 7.15361 9.69967 7.12543C9.69789 7.12415 9.69579 7.12339 9.69361 7.12323C9.69143 7.12307 9.68924 7.12352 9.6873 7.12452C9.67054 7.1329 9.65185 7.15043 9.63213 7.15971C9.59586 7.17681 9.53468 7.20513 9.44857 7.24466C9.31426 7.3064 9.23498 7.4161 9.23447 7.56704C9.23443 7.5689 9.23368 7.57067 9.23238 7.57197C9.23108 7.57327 9.22933 7.574 9.22751 7.574H7.80263C7.8016 7.57401 7.80058 7.57371 7.79972 7.57314C7.79886 7.57256 7.79819 7.57174 7.7978 7.57078C7.79741 7.56982 7.79732 7.56877 7.79754 7.56776C7.79775 7.56674 7.79827 7.56582 7.79902 7.56511C8.39051 6.99545 8.82018 6.58043 9.08803 6.32005C9.13341 6.27584 9.17814 6.28873 9.22699 6.28203C9.22788 6.28191 9.22871 6.28154 9.22938 6.28095C9.23006 6.28037 9.23054 6.27959 9.23079 6.27872C9.23103 6.27785 9.23102 6.27692 9.23076 6.27604C9.2305 6.27517 9.23 6.27438 9.22931 6.27378Z" stroke="#80BE9D" stroke-width="0.0257802"/>
<path d="M10.4492 5.9602V8.57457C10.4492 8.5759 10.4497 8.57718 10.4507 8.57812C10.4516 8.57907 10.4529 8.5796 10.4542 8.5796H11.3131C11.3145 8.5796 11.316 8.57931 11.3173 8.57874C11.3186 8.57818 11.3198 8.57735 11.3207 8.57631C11.3217 8.57528 11.3225 8.57405 11.323 8.5727C11.3234 8.57136 11.3236 8.56994 11.3236 8.56851C11.3199 8.50062 11.3058 8.43076 11.2814 8.35892C11.2043 8.13244 11.1589 8.03692 11.1401 7.87657C11.14 7.87521 11.1395 7.87392 11.1386 7.87284C11.1378 7.87176 11.1367 7.87092 11.1354 7.87043C11.1341 7.86994 11.1327 7.86981 11.1314 7.87005C11.13 7.87029 11.1288 7.8709 11.1278 7.8718C11.1009 7.89543 11.0656 7.92465 11.0221 7.95945C10.958 8.01076 10.8759 8.01591 10.7951 7.99993C10.7942 7.99978 10.7934 7.99933 10.7928 7.99867C10.7923 7.99801 10.792 7.99717 10.792 7.99632V6.37964C10.792 6.36224 10.7977 6.34527 10.8082 6.3313C10.8526 6.2724 10.8843 6.23927 10.8923 6.18165C10.8925 6.17957 10.8921 6.17745 10.8909 6.17568C10.8898 6.17391 10.8881 6.1726 10.8861 6.17198C10.7968 6.14457 10.7228 6.11368 10.6641 6.0793C10.6033 6.04381 10.5339 6.00282 10.4561 5.95633C10.4554 5.95592 10.4546 5.9557 10.4538 5.95569C10.453 5.95568 10.4522 5.95588 10.4515 5.95627C10.4508 5.95667 10.4502 5.95724 10.4498 5.95793C10.4494 5.95862 10.4492 5.9594 10.4492 5.9602Z" stroke="#80BE9D" stroke-width="0.0257802"/>
<path d="M14.3699 5.96166L14.3691 8.57449C14.3691 8.57582 14.3697 8.5771 14.3706 8.57804C14.3716 8.57898 14.3728 8.57951 14.3742 8.57951L15.2325 8.5799C15.2339 8.5799 15.2354 8.57961 15.2367 8.57905C15.238 8.57849 15.2392 8.57766 15.2401 8.57662C15.2411 8.57558 15.2419 8.57435 15.2424 8.57301C15.2428 8.57167 15.243 8.57024 15.243 8.56882C15.2393 8.50093 15.2252 8.43106 15.2008 8.35922C15.1239 8.13287 15.0786 8.03749 15.0598 7.87713C15.0596 7.87577 15.0591 7.87448 15.0583 7.8734C15.0574 7.87232 15.0563 7.87149 15.0551 7.87099C15.0538 7.8705 15.0524 7.87037 15.051 7.87061C15.0497 7.87085 15.0484 7.87146 15.0474 7.87236C15.0205 7.896 14.9853 7.92521 14.9418 7.96002C14.8778 8.01119 14.7957 8.01635 14.715 8.00036C14.7141 8.00021 14.7133 7.99976 14.7128 7.9991C14.7122 7.99844 14.7119 7.99761 14.7119 7.99675L14.7124 6.38098C14.7124 6.36358 14.7181 6.34661 14.7286 6.33264C14.773 6.27386 14.8047 6.24073 14.8127 6.18311C14.813 6.18103 14.8125 6.17892 14.8114 6.17715C14.8102 6.17538 14.8085 6.17407 14.8065 6.17345C14.7172 6.14603 14.6433 6.11514 14.5847 6.08077C14.5239 6.04528 14.4546 6.00429 14.3767 5.9578C14.3761 5.95739 14.3753 5.95716 14.3745 5.95715C14.3737 5.95714 14.3729 5.95735 14.3722 5.95774C14.3715 5.95813 14.3709 5.9587 14.3705 5.95939C14.3701 5.96008 14.3699 5.96086 14.3699 5.96166Z" stroke="#80BE9D" stroke-width="0.0257802"/>
<path d="M14.0633 6.06061C13.9793 6.18061 13.8488 6.28077 13.7525 6.35708C13.7507 6.35857 13.7492 6.36045 13.7482 6.36257C13.7471 6.36468 13.7466 6.36699 13.7466 6.36933V7.96087C13.7466 7.96237 13.746 7.96381 13.7449 7.96488C13.7439 7.96594 13.7424 7.96654 13.7409 7.96654H13.5237C13.5222 7.96654 13.5207 7.96593 13.5195 7.96484C13.5184 7.96375 13.5178 7.96228 13.5178 7.96074V6.56384C13.5178 6.56316 13.5177 6.56248 13.5173 6.5619C13.5169 6.56132 13.5164 6.56086 13.5158 6.56057C13.5152 6.56028 13.5145 6.56018 13.5138 6.56028C13.5131 6.56038 13.5125 6.56068 13.512 6.56113L13.201 6.82074C13.1992 6.82223 13.1978 6.8241 13.1968 6.82621C13.1958 6.82833 13.1953 6.83064 13.1953 6.83298V7.96048C13.1953 7.96131 13.1951 7.96213 13.1948 7.9629C13.1945 7.96366 13.194 7.96436 13.1934 7.96495C13.1929 7.96553 13.1922 7.966 13.1914 7.96632C13.1906 7.96663 13.1898 7.9668 13.189 7.9668H12.9731C12.9713 7.9668 12.9697 7.9661 12.9684 7.96487C12.9672 7.96364 12.9665 7.96197 12.9665 7.96022V7.02466C12.9665 7.02401 12.9663 7.02338 12.966 7.02283C12.9656 7.02229 12.9651 7.02185 12.9646 7.02158C12.964 7.02131 12.9633 7.02121 12.9627 7.0213C12.962 7.02139 12.9614 7.02166 12.961 7.02208L12.554 7.36174C12.552 7.36343 12.5504 7.36566 12.5496 7.36819C12.5488 7.37071 12.5487 7.37342 12.5493 7.376C12.55 7.37858 12.5513 7.38092 12.5533 7.38275C12.5552 7.38459 12.5576 7.38584 12.5602 7.38636L12.6093 7.39641C12.6132 7.39721 12.6167 7.39933 12.6192 7.4024C12.6217 7.40548 12.6231 7.40932 12.6231 7.4133V7.62792C12.6231 7.62867 12.623 7.62941 12.6226 7.6301C12.6223 7.63079 12.6219 7.6314 12.6213 7.6319C12.6207 7.6324 12.6201 7.63278 12.6193 7.633C12.6186 7.63322 12.6178 7.63329 12.617 7.6332C12.462 7.61039 12.3153 7.60626 12.1932 7.71544C12.099 7.79974 12.053 7.96448 12.0438 8.08719C12.0322 8.24239 12.0323 8.4054 12.044 8.57624C12.044 8.57722 12.0445 8.57814 12.0452 8.57881C12.0459 8.57948 12.0468 8.57985 12.0478 8.57985H14.0579C14.0605 8.57985 14.0629 8.57883 14.0647 8.57702C14.0666 8.57521 14.0676 8.57275 14.0676 8.57018V6.0619C14.0676 6.0614 14.0674 6.06091 14.0671 6.06051C14.0668 6.06011 14.0664 6.05981 14.0659 6.05967C14.0654 6.05953 14.0649 6.05954 14.0645 6.05971C14.064 6.05988 14.0636 6.06019 14.0633 6.06061Z" stroke="#80BE9D" stroke-width="0.0257802"/>
<path d="M12.4375 7.91555C12.4375 7.9248 12.4399 7.93395 12.4445 7.9425C12.4492 7.95105 12.4561 7.95882 12.4647 7.96537C12.4734 7.97192 12.4836 7.97712 12.4949 7.98068C12.5062 7.98423 12.5183 7.98608 12.5306 7.9861C12.5428 7.98612 12.5549 7.98432 12.5662 7.9808C12.5776 7.97728 12.5878 7.97212 12.5965 7.9656C12.6052 7.95908 12.6121 7.95133 12.6167 7.9428C12.6214 7.93427 12.6239 7.92512 12.6239 7.91588C12.6239 7.90664 12.6215 7.89748 12.6168 7.88893C12.6122 7.88039 12.6053 7.87262 12.5967 7.86607C12.588 7.85952 12.5778 7.85431 12.5665 7.85076C12.5552 7.8472 12.5431 7.84536 12.5308 7.84534C12.5186 7.84532 12.5065 7.84712 12.4951 7.85063C12.4838 7.85415 12.4735 7.85932 12.4649 7.86584C12.4562 7.87236 12.4493 7.8801 12.4446 7.88863C12.4399 7.89716 12.4375 7.90631 12.4375 7.91555Z" stroke="#80BE9D" stroke-width="0.0257802"/>
<path d="M9.22699 6.28203C9.17814 6.28873 9.13341 6.27584 9.08803 6.32005C8.82018 6.58043 8.39051 6.99545 7.79902 7.56511C7.79827 7.56582 7.79775 7.56674 7.79754 7.56776C7.79732 7.56877 7.79741 7.56982 7.7978 7.57078C7.79819 7.57174 7.79886 7.57256 7.79972 7.57314C7.80058 7.57371 7.8016 7.57401 7.80263 7.574H9.22751C9.22933 7.574 9.23108 7.57327 9.23238 7.57197C9.23368 7.57067 9.23443 7.5689 9.23447 7.56704C9.23498 7.4161 9.31426 7.3064 9.44857 7.24466C9.53468 7.20513 9.59586 7.17681 9.63213 7.15971C9.65185 7.15043 9.67054 7.1329 9.6873 7.12452C9.68924 7.12352 9.69143 7.12307 9.69361 7.12323C9.69579 7.12339 9.69789 7.12415 9.69967 7.12543C9.7392 7.15361 9.78427 7.17793 9.83489 7.19838C10.0052 7.26735 10.1473 7.35229 10.1477 7.5615C10.1483 7.91142 10.1484 8.24966 10.148 8.57621C10.148 8.5771 10.1476 8.57795 10.147 8.57858C10.1463 8.5792 10.1454 8.57956 10.1445 8.57956H6.13491C6.1336 8.57955 6.13233 8.58005 6.13133 8.58095C6.13034 8.58185 6.12968 8.5831 6.1295 8.58446C6.1191 8.66755 6.08872 8.74206 6.03836 8.80797C5.88394 9.00983 5.63194 9.07686 5.38381 9.02968C5.38316 9.02957 5.38256 9.02927 5.38208 9.02881C5.38161 9.02836 5.38129 9.02776 5.38116 9.02712C5.38104 9.02647 5.38111 9.0258 5.38138 9.0252C5.38164 9.0246 5.38208 9.02409 5.38264 9.02375C5.39425 9.01619 5.41337 9.00532 5.44001 8.99114C5.64328 8.88299 5.83419 8.72702 5.80132 8.47012C5.7898 8.38023 5.7635 8.28846 5.72243 8.19479C5.6731 8.0823 5.6157 7.97011 5.55022 7.85823C5.54935 7.85673 5.54884 7.85506 5.54872 7.85334C5.5486 7.85162 5.54887 7.84989 5.54951 7.84828C5.55016 7.84667 5.55116 7.84522 5.55244 7.84404C5.55372 7.84286 5.55525 7.84198 5.55692 7.84147C5.70773 7.79623 5.83741 7.71773 5.96489 7.62737C5.9654 7.62697 5.96601 7.62675 5.96665 7.62672C5.96729 7.62669 5.96793 7.62686 5.96848 7.6272C5.96904 7.62755 5.96948 7.62806 5.96976 7.62866C5.97004 7.62926 5.97014 7.62993 5.97005 7.63059C5.96566 7.65804 5.95239 7.68898 5.94994 7.71334C5.93817 7.83442 5.98749 7.91477 6.09792 7.95439C6.17672 7.98257 6.27567 7.9977 6.39478 7.99976C6.47306 8.00114 6.57588 8.00126 6.70324 8.00015C6.70438 8.00012 6.70547 7.99967 6.70631 7.99888C6.70714 7.9981 6.70765 7.99703 6.70775 7.99589C6.71583 7.91168 6.71273 7.83021 6.69847 7.7515C6.69013 7.70578 6.66697 7.67549 6.62899 7.66062C6.62806 7.66027 6.62726 7.65964 6.6267 7.65882C6.62614 7.65801 6.62584 7.65704 6.62584 7.65605C6.62584 7.65505 6.62614 7.65409 6.6267 7.65327C6.62726 7.65245 6.62806 7.65182 6.62899 7.65147C6.6741 7.63403 6.70985 7.61804 6.73624 7.60352C6.76133 7.58977 6.79321 7.56726 6.83188 7.53598C6.8776 7.49894 6.93165 7.45313 6.99404 7.39857C6.99476 7.39796 6.99565 7.39757 6.99658 7.39744C6.99752 7.39731 6.99847 7.39745 6.99934 7.39784C7.0002 7.39824 7.00093 7.39886 7.00145 7.39965C7.00198 7.40044 7.00226 7.40136 7.00229 7.4023V7.96083C7.00229 7.9623 7.00287 7.96371 7.00391 7.96475C7.00495 7.96579 7.00636 7.96638 7.00783 7.96638H9.76721C9.76843 7.96638 9.76963 7.96613 9.77075 7.96567C9.77187 7.9652 9.77288 7.96451 9.77373 7.96365C9.77458 7.96279 9.77525 7.96176 9.77571 7.96064C9.77616 7.95951 9.77638 7.95831 9.77637 7.95709C9.77576 7.85346 9.77594 7.73899 9.77688 7.6137C9.7774 7.5441 9.76013 7.48622 9.68175 7.49292C9.64411 7.49619 9.61997 7.51827 9.60931 7.55918C9.60863 7.56149 9.60828 7.56392 9.60828 7.5664C9.60802 7.72314 9.60785 7.80211 9.60776 7.80332C9.60493 7.85655 9.56677 7.86325 9.52011 7.86325C8.95836 7.86317 8.26354 7.86317 7.43565 7.86325C7.4335 7.86325 7.43143 7.8624 7.42991 7.86088C7.42839 7.85935 7.42753 7.85729 7.42753 7.85513V7.49885C7.42753 7.49636 7.42804 7.49389 7.42901 7.49159C7.42998 7.48928 7.43141 7.4872 7.4332 7.48545L9.01301 5.95964C9.01357 5.95911 9.01427 5.95874 9.01503 5.95858C9.01579 5.95842 9.01658 5.95848 9.0173 5.95875C9.01803 5.95902 9.01866 5.95949 9.01914 5.9601C9.01961 5.96072 9.0199 5.96145 9.01998 5.96222C9.02273 5.9886 9.02844 6.01039 9.03712 6.02757C9.08627 6.12391 9.15034 6.20597 9.22931 6.27378C9.23 6.27438 9.2305 6.27517 9.23076 6.27604C9.23102 6.27692 9.23103 6.27785 9.23079 6.27872C9.23054 6.27959 9.23006 6.28037 9.22938 6.28095C9.22871 6.28154 9.22788 6.28191 9.22699 6.28203Z" fill="#007C3A"/>
<path d="M10.4492 5.9602C10.4492 5.9594 10.4494 5.95862 10.4498 5.95793C10.4502 5.95724 10.4508 5.95667 10.4515 5.95627C10.4522 5.95588 10.453 5.95568 10.4538 5.95569C10.4546 5.9557 10.4554 5.95592 10.4561 5.95633C10.5339 6.00282 10.6033 6.04381 10.6641 6.0793C10.7228 6.11368 10.7968 6.14457 10.8861 6.17198C10.8881 6.1726 10.8898 6.17391 10.8909 6.17568C10.8921 6.17745 10.8925 6.17957 10.8923 6.18165C10.8843 6.23927 10.8526 6.2724 10.8082 6.3313C10.7977 6.34527 10.792 6.36224 10.792 6.37964V7.99632C10.792 7.99717 10.7923 7.99801 10.7928 7.99867C10.7934 7.99933 10.7942 7.99978 10.7951 7.99993C10.8759 8.01591 10.958 8.01076 11.0221 7.95945C11.0656 7.92465 11.1009 7.89543 11.1278 7.8718C11.1288 7.8709 11.13 7.87029 11.1314 7.87005C11.1327 7.86981 11.1341 7.86994 11.1354 7.87043C11.1367 7.87092 11.1378 7.87176 11.1386 7.87284C11.1395 7.87392 11.14 7.87521 11.1401 7.87657C11.1589 8.03692 11.2043 8.13244 11.2814 8.35892C11.3058 8.43076 11.3199 8.50062 11.3236 8.56851C11.3236 8.56994 11.3234 8.57136 11.323 8.5727C11.3225 8.57405 11.3217 8.57528 11.3207 8.57631C11.3198 8.57735 11.3186 8.57818 11.3173 8.57874C11.316 8.57931 11.3145 8.5796 11.3131 8.5796H10.4542C10.4529 8.5796 10.4516 8.57907 10.4507 8.57812C10.4497 8.57718 10.4492 8.5759 10.4492 8.57457V5.9602Z" fill="#007C3A"/>
<path d="M14.3699 5.96166C14.3699 5.96086 14.3701 5.96008 14.3705 5.95939C14.3709 5.9587 14.3715 5.95813 14.3722 5.95774C14.3729 5.95735 14.3737 5.95714 14.3745 5.95715C14.3753 5.95716 14.3761 5.95739 14.3767 5.9578C14.4546 6.00429 14.5239 6.04528 14.5847 6.08077C14.6433 6.11514 14.7172 6.14603 14.8065 6.17345C14.8085 6.17407 14.8102 6.17538 14.8114 6.17715C14.8125 6.17892 14.813 6.18103 14.8127 6.18311C14.8047 6.24073 14.773 6.27386 14.7286 6.33264C14.7181 6.34661 14.7124 6.36358 14.7124 6.38098L14.7119 7.99675C14.7119 7.99761 14.7122 7.99844 14.7128 7.9991C14.7133 7.99976 14.7141 8.00021 14.715 8.00036C14.7957 8.01635 14.8778 8.01119 14.9418 7.96002C14.9853 7.92521 15.0205 7.896 15.0474 7.87236C15.0484 7.87146 15.0497 7.87085 15.051 7.87061C15.0524 7.87037 15.0538 7.8705 15.0551 7.87099C15.0563 7.87149 15.0574 7.87232 15.0583 7.8734C15.0591 7.87448 15.0596 7.87577 15.0598 7.87713C15.0786 8.03749 15.1239 8.13287 15.2008 8.35922C15.2252 8.43106 15.2393 8.50093 15.243 8.56882C15.243 8.57024 15.2428 8.57167 15.2424 8.57301C15.2419 8.57435 15.2411 8.57558 15.2401 8.57662C15.2392 8.57766 15.238 8.57849 15.2367 8.57905C15.2354 8.57961 15.2339 8.5799 15.2325 8.5799L14.3742 8.57951C14.3728 8.57951 14.3716 8.57898 14.3706 8.57804C14.3697 8.5771 14.3691 8.57582 14.3691 8.57449L14.3699 5.96166Z" fill="#007C3A"/>
<path d="M14.0633 6.06061C14.0636 6.06019 14.064 6.05988 14.0645 6.05971C14.0649 6.05954 14.0654 6.05953 14.0659 6.05967C14.0664 6.05981 14.0668 6.06011 14.0671 6.06051C14.0674 6.06091 14.0676 6.0614 14.0676 6.0619V8.57018C14.0676 8.57275 14.0666 8.57521 14.0647 8.57702C14.0629 8.57883 14.0605 8.57985 14.0579 8.57985H12.0478C12.0468 8.57985 12.0459 8.57948 12.0452 8.57881C12.0445 8.57814 12.044 8.57722 12.044 8.57624C12.0323 8.4054 12.0322 8.24239 12.0438 8.08719C12.053 7.96448 12.099 7.79974 12.1932 7.71544C12.3153 7.60626 12.462 7.61039 12.617 7.6332C12.6178 7.63329 12.6186 7.63322 12.6193 7.633C12.6201 7.63278 12.6207 7.6324 12.6213 7.6319C12.6219 7.6314 12.6223 7.63079 12.6226 7.6301C12.623 7.62941 12.6231 7.62867 12.6231 7.62792V7.4133C12.6231 7.40932 12.6217 7.40548 12.6192 7.4024C12.6167 7.39933 12.6132 7.39721 12.6093 7.39641L12.5602 7.38636C12.5576 7.38584 12.5552 7.38459 12.5533 7.38275C12.5513 7.38092 12.55 7.37858 12.5493 7.376C12.5487 7.37342 12.5488 7.37071 12.5496 7.36819C12.5504 7.36566 12.552 7.36343 12.554 7.36174L12.961 7.02208C12.9614 7.02166 12.962 7.02139 12.9627 7.0213C12.9633 7.02121 12.964 7.02131 12.9646 7.02158C12.9651 7.02185 12.9656 7.02229 12.966 7.02283C12.9663 7.02338 12.9665 7.02401 12.9665 7.02466V7.96022C12.9665 7.96197 12.9672 7.96364 12.9684 7.96487C12.9697 7.9661 12.9713 7.9668 12.9731 7.9668H13.189C13.1898 7.9668 13.1906 7.96663 13.1914 7.96632C13.1922 7.966 13.1929 7.96553 13.1934 7.96495C13.194 7.96436 13.1945 7.96366 13.1948 7.9629C13.1951 7.96213 13.1953 7.96131 13.1953 7.96048V6.83298C13.1953 6.83064 13.1958 6.82833 13.1968 6.82621C13.1978 6.8241 13.1992 6.82223 13.201 6.82074L13.512 6.56113C13.5125 6.56068 13.5131 6.56038 13.5138 6.56028C13.5145 6.56018 13.5152 6.56028 13.5158 6.56057C13.5164 6.56086 13.5169 6.56132 13.5173 6.5619C13.5177 6.56248 13.5178 6.56316 13.5178 6.56384V7.96074C13.5178 7.96228 13.5184 7.96375 13.5195 7.96484C13.5207 7.96593 13.5222 7.96654 13.5237 7.96654H13.7409C13.7424 7.96654 13.7439 7.96594 13.7449 7.96488C13.746 7.96381 13.7466 7.96237 13.7466 7.96087V6.36933C13.7466 6.36699 13.7471 6.36468 13.7482 6.36257C13.7492 6.36045 13.7507 6.35857 13.7525 6.35708C13.8488 6.28077 13.9793 6.18061 14.0633 6.06061ZM12.4375 7.91546C12.4375 7.9247 12.4399 7.93386 12.4445 7.94241C12.4492 7.95095 12.4561 7.95872 12.4647 7.96527C12.4733 7.97183 12.4836 7.97703 12.4949 7.98058C12.5062 7.98414 12.5183 7.98598 12.5306 7.986C12.5428 7.98602 12.5549 7.98423 12.5662 7.98071C12.5775 7.97719 12.5878 7.97202 12.5965 7.9655C12.6052 7.95898 12.612 7.95124 12.6167 7.94271C12.6214 7.93418 12.6239 7.92503 12.6239 7.91579C12.6239 7.90654 12.6215 7.89739 12.6168 7.88884C12.6122 7.88029 12.6053 7.87252 12.5967 7.86597C12.588 7.85942 12.5778 7.85422 12.5665 7.85066C12.5552 7.84711 12.543 7.84526 12.5308 7.84524C12.5186 7.84522 12.5064 7.84702 12.4951 7.85054C12.4838 7.85406 12.4735 7.85922 12.4649 7.86574C12.4562 7.87226 12.4493 7.88001 12.4446 7.88854C12.4399 7.89707 12.4375 7.90622 12.4375 7.91546Z" fill="#007C3A"/>
<path d="M12.5308 7.84516C12.4794 7.84507 12.4376 7.87651 12.4375 7.91538C12.4374 7.95425 12.4791 7.98583 12.5306 7.98592C12.5821 7.98601 12.6238 7.95457 12.6239 7.9157C12.624 7.87683 12.5823 7.84525 12.5308 7.84516Z" fill="white"/>
</g>
<defs>
<clipPath id="clip0_1414_4736">
<rect width="21" height="15" rx="3" fill="white"/>
</clipPath>
</defs>
</svg>
